<?xml version="1.0" encoding="utf-8"?>
<!-- Svg Vector Icons : http://www.onlinewebfonts.com/icon -->
<!DOCTYPE svg PUBLIC "-//W3C//DTD SVG 1.1//EN" "http://www.w3.org/Graphics/SVG/1.1/DTD/svg11.dtd">
<svg version="1.1" xmlns="http://www.w3.org/2000/svg" xmlns:xlink="http://www.w3.org/1999/xlink" x="0px" y="0px" viewBox="0 0 1000 1000" enable-background="new 0 0 1000 1000" xml:space="preserve">
<metadata> Svg Vector Icons : http://www.onlinewebfonts.com/icon </metadata>
<g><g transform="translate(0.000000,642.000000) scale(0.100000,-0.100000)"><path d="M499,6301.6c-182.4-49-328-194.6-375.5-375.5c-24.5-90.4-26.1-416.9-21.5-4550.3l4.6-4452.2l41.4-87.4c52.1-111.9,157.9-217.6,269.7-269.7l87.4-41.4l2418.4-4.6l2416.9-3.1v1900.4V318.3h-636h-636V1054v735.6h636h636v634.5c0,691.2,12.3,859.8,84.3,1126.5c82.8,303.5,214.6,544.1,419.9,757.1c282,292.7,648.3,464.4,1112.7,518c229.9,27.6,1301.2-3.1,1414.6-39.8c13.8-4.6,18.4-151.7,18.4-665.2v-657.5l-516.5-6.1c-484.3-6.1-524.1-9.2-620.7-39.8c-173.2-58.2-278.9-159.4-343.3-332.6c-24.5-69-27.6-139.5-33.7-685.1l-4.6-610h728c634.5,0,729.5-3.1,729.5-23c0-23-160.9-1287.4-177.8-1391.6l-9.2-56.7h-634.5h-634.5v-1900.4v-1900.4l1322.6,3.1l1321.1,4.6l96.6,52.1c110.4,59.8,183.9,134.9,243.7,249.8l42.9,81.2v4505.9V5920l-41.4,87.4c-52.1,111.9-157.9,217.6-269.7,269.7l-87.4,41.4l-4459.9,3.1C1171.8,6324.6,571,6321.5,499,6301.6z"/></g></g>
</svg>