<?xml version="1.0" encoding="UTF-8" standalone="no"?>
<svg
   width="78"
   height="82"
   viewBox="0 0 78 82"
   fill="#000000"
   version="1.1"
   id="svg4"
   sodipodi:docname="mastodon.svg"
   inkscape:version="1.1.2 (0a00cf5339, 2022-02-04)"
   xmlns:inkscape="http://www.inkscape.org/namespaces/inkscape"
   xmlns:sodipodi="http://sodipodi.sourceforge.net/DTD/sodipodi-0.dtd"
   xmlns="http://www.w3.org/2000/svg"
   xmlns:svg="http://www.w3.org/2000/svg">
  <defs
     id="defs8" />
  <sodipodi:namedview
     id="namedview6"
     pagecolor="#ffffff"
     bordercolor="#666666"
     borderopacity="1.0"
     inkscape:pageshadow="2"
     inkscape:pageopacity="0.0"
     inkscape:pagecheckerboard="0"
     showgrid="false"
     width="75px"
     inkscape:zoom="10.367089"
     inkscape:cx="36.992063"
     inkscape:cy="33.181929"
     inkscape:window-width="1920"
     inkscape:window-height="1053"
     inkscape:window-x="0"
     inkscape:window-y="0"
     inkscape:window-maximized="1"
     inkscape:current-layer="svg4" />
  <path
     d="M 75.7014,19.4323 C 74.5616,11.05152 67.1774,4.4469 58.424,3.1671 56.9472,2.950843 51.3518,2.163818 38.3901,2.163818 H 38.2933 C 25.3281,2.163818 22.5465,2.950843 21.0697,3.1671 12.56,4.41145 4.78877,10.34604 2.903306,18.826 1.9964215,23.0022 1.899639,27.6322 2.068112,31.8793 c 0.240163,6.0906 0.286762,12.1705 0.845948,18.2363 0.38658,4.0292 1.06096,8.0263 2.01809,11.9613 1.79226,7.2676 9.04735,13.3156 16.15545,15.7831 7.6103,2.5732 15.7945,3.0003 23.6364,1.2337 0.8626,-0.1985 1.7158,-0.429 2.5593,-0.6913 1.9034,-0.5991 4.1366,-1.2692 5.7783,-2.4462 0.0225,-0.0165 0.041,-0.0378 0.054,-0.0624 0.013,-0.0245 0.0203,-0.0517 0.0212,-0.0794 v -5.8778 c -4e-4,-0.0259 -0.0066,-0.0514 -0.0182,-0.0746 -0.0117,-0.0232 -0.0284,-0.0436 -0.0491,-0.0595 -0.0206,-0.016 -0.0446,-0.0272 -0.0701,-0.0329 -0.0256,-0.0056 -0.0521,-0.0055 -0.0776,3e-4 -5.0242,1.187 -10.1727,1.782 -15.3382,1.7726 -8.8896,0 -11.2805,-4.1726 -11.9652,-5.9098 -0.5503,-1.5013 -0.8998,-3.0673 -1.0395,-4.6583 -0.0014,-0.0267 0.0036,-0.0534 0.0145,-0.0779 0.0109,-0.0244 0.0276,-0.046 0.0485,-0.0629 0.021,-0.0169 0.0457,-0.0287 0.0721,-0.0344 0.0264,-0.0058 0.0538,-0.0052 0.08,0.0015 4.9405,1.1789 10.005,1.7739 15.0873,1.7726 1.2223,0 2.441,0 3.6634,-0.0319 5.1115,-0.1418 10.499,-0.4006 15.5281,-1.372 0.1255,-0.0248 0.2509,-0.0461 0.3585,-0.078 7.9325,-1.5067 15.4815,-6.2359 16.2486,-18.2115 0.0287,-0.4715 0.1004,-4.9384 0.1004,-5.4276 0.0036,-1.6627 0.5413,-11.7947 -0.0789,-18.02 z M 63.4925,49.3144 H 55.1514 V 29.107 c 0,-4.2542 -1.7923,-6.4238 -5.4378,-6.4238 -4.0075,0 -6.0148,2.5667 -6.0148,7.6362 v 11.0609 h -8.291 V 30.3194 c 0,-5.0695 -2.0109,-7.6362 -6.0184,-7.6362 -3.624,0 -5.4342,2.1696 -5.4378,6.4238 v 20.2074 h -8.334 V 28.4937 c 0,-4.2542 1.0981,-7.6339 3.2942,-10.1392 2.2654,-2.4993 5.237,-3.7826 8.9255,-3.7826 4.2691,0 7.4952,1.6236 9.6459,4.8675 l 2.0755,3.4459 2.079,-3.4459 c 2.1507,-3.2439 5.3768,-4.8675 9.6388,-4.8675 3.6849,0 6.6564,1.2833 8.929,3.7826 2.1962,2.5029 3.2942,5.8826 3.2942,10.1392 z"
     fill="inherit"
     id="path2" />
</svg>
