<?xml version="1.0" encoding="UTF-8" standalone="no"?>

<svg version="1.1" xmlns="http://www.w3.org/2000/svg"
   width="72"
   height="60"
   viewBox="0 0 72 60">
<path
     id="path4593"
     style="fill:none;fill-rule:evenodd;stroke-width:4.94669819;stroke-linecap:butt;stroke-linejoin:miter;stroke-miterlimit:4;stroke-dasharray:none;stroke-opacity:1"
     d="m 36.651305,4.4113668 c 0,0 -4.420945,-1.7295315 -7.409785,-1.7295315 -14.045212,2e-7 -26.6259952,12.7973507 -26.6259952,26.6011237 0,23.200021 20.1974532,27.948523 25.9622402,28.000914 2.93859,-0.01758 5.794604,-0.703271 8.049066,-1.227992 2.116266,0.631336 5.486955,1.072981 7.564163,1.072981 13.897177,0 25.205943,-14.306656 25.205943,-27.117649 0,-19.600699 -16.500484,-27.3396771 -25.205943,-27.3396771 -3.542553,0 -7.539689,1.7398309 -7.539689,1.7398309 m 0,0 c -7.100265,0 -22.266152,10.0546552 -22.282017,25.5998342 0.01586,4.00746 1.294055,22.309859 22.257543,26.04468 0,0 21.501453,-3.66186 21.4986,-26.04468 C 58.128279,15.150807 43.929075,4.4113668 36.651305,4.4113668 Z M 14.369882,51.44707 l -2e-6,-21.435857"/>
</svg>